<svg
	xmlns="http://www.w3.org/2000/svg"
	xmlns:xlink="http://www.w3.org/1999/xlink"
	width="18px" height="12px">
	<path fill-rule="evenodd"  fill="rgb(207, 216, 223)"
		  d="M4.000,7.000 L14.000,7.000 C14.552,7.000 15.000,6.552 15.000,6.000 L15.000,6.000 C15.000,5.448 14.552,5.000 14.000,5.000 L4.000,5.000 C3.448,5.000 3.000,5.448 3.000,6.000 L3.000,6.000 C3.000,6.552 3.448,7.000 4.000,7.000 ZM-0.000,1.000 L-0.000,1.000 C-0.000,1.552 0.448,2.000 1.000,2.000 L17.000,2.000 C17.552,2.000 18.000,1.552 18.000,1.000 L18.000,1.000 C18.000,0.448 17.552,0.000 17.000,0.000 L1.000,0.000 C0.448,0.000 -0.000,0.448 -0.000,1.000 ZM8.000,12.000 L10.000,12.000 C10.552,12.000 11.000,11.552 11.000,11.000 L11.000,11.000 C11.000,10.448 10.552,10.000 10.000,10.000 L8.000,10.000 C7.448,10.000 7.000,10.448 7.000,11.000 L7.000,11.000 C7.000,11.552 7.448,12.000 8.000,12.000 Z"/>
</svg>